<?xml version="1.0" encoding="UTF-8"?>
<svg width="4280px" height="970px" viewBox="0 0 4280 970" version="1.1" xmlns="http://www.w3.org/2000/svg" xmlns:xlink="http://www.w3.org/1999/xlink">
    <title>TECC SE white</title>
    <defs></defs>
    <g id="TECC-SE-white" stroke="none" stroke-width="1" fill="none" fill-rule="evenodd">
        <g id="logo" transform="translate(81.000000, 107.000000)">
            <g id="Group" fill="#FFFFFF">
                <path d="M2010.83517,376.134441 L2126.56884,474.508064 C2099.56418,511.800212 2064.36221,542.662216 2020.96187,567.095003 C1977.56152,591.52779 1927.5715,603.744 1870.99031,603.744 C1777.75994,603.744 1699.96197,574.97161 1637.59407,517.425968 C1575.22617,459.880326 1544.04268,386.743805 1544.04268,298.014211 C1544.04268,213.785394 1574.90469,143.059967 1636.62962,85.8358083 C1698.35456,28.61165 1773.58069,0 1862.31029,0 C1960.04143,0 2043.94751,39.5419432 2114.03103,118.627016 L2001.1907,223.75177 C1968.39932,174.886197 1922.74928,150.453776 1864.23918,150.453776 C1822.44626,150.453776 1785.47615,164.759601 1753.32774,193.371681 C1721.17934,221.98376 1705.10538,256.864254 1705.10538,298.014211 C1705.10538,343.021976 1721.17934,379.992085 1753.32774,408.925649 C1785.47615,437.859212 1822.76774,452.325776 1865.20363,452.325776 C1923.71372,452.325776 1972.25709,426.928919 2010.83517,376.134441 L2010.83517,376.134441 Z" id="Path"></path>
                <path d="M1987.5041,583 C1983.1321,584.722192 1978.70225,586.337149 1974.21456,587.844872 L1974.96063,583 L1987.5041,583 Z M1544.39498,314.173087 C1544.16012,308.845516 1544.04268,303.459224 1544.04268,298.014211 C1544.04268,213.785394 1574.90469,143.059967 1636.62962,85.8358083 C1698.35456,28.61165 1773.58069,0 1862.31029,0 C1960.04143,0 2043.94751,39.5419432 2114.03103,118.627016 L2001.1907,223.75177 C1968.39932,174.886197 1922.74928,150.453776 1864.23918,150.453776 C1822.44626,150.453776 1785.47615,164.759601 1753.32774,193.371681 C1721.17934,221.98376 1705.10538,256.864254 1705.10538,298.014211 C1705.10538,302.783103 1705.28584,307.461757 1705.64676,312.050175 L1544.39498,314.173087 Z" id="Path"></path>
                <path d="M1687.5045,46.9697188 C1738.36333,15.6564571 1796.61041,0 1862.24667,0 C1959.97781,0 2043.88389,39.5419432 2113.96741,118.627016 L2001.12708,223.75177 C1968.3357,174.886197 1922.68566,150.453776 1864.17556,150.453776 C1831.12927,150.453776 1801.09835,159.398208 1774.08226,177.287283 L1687.5045,46.9697188 Z" id="Path"></path>
                <path d="M1560.43829,474.508064 C1533.43363,511.800212 1498.23165,542.662216 1454.83131,567.095003 C1411.43097,591.52779 1361.44095,603.744 1304.85976,603.744 C1211.62939,603.744 1133.83142,574.97161 1071.46351,517.425968 C1009.09561,459.880326 977.912128,386.743805 977.912128,298.014211 C977.912128,213.785394 1008.77413,143.059967 1070.49907,85.8358083 C1132.224,28.61165 1207.45014,0 1296.17973,0 C1393.91088,0 1477.81695,39.5419432 1547.90047,118.627016 L1435.06014,223.75177 C1402.26877,174.886197 1356.61872,150.453776 1298.10863,150.453776 C1256.3157,150.453776 1219.34559,164.759601 1187.19719,193.371681 C1155.04878,221.98376 1138.97482,256.864254 1138.97482,298.014211 C1138.97482,343.021976 1155.04878,379.992085 1187.19719,408.925649 C1219.34559,437.859212 1256.63718,452.325776 1299.07307,452.325776 C1357.58317,452.325776 1406.12653,426.928919 1444.70461,376.134441 L1560.43829,474.508064 Z" id="Path"></path>
                <polygon id="Path" points="920.045291 591.206185 512.084089 591.206185 512.084089 12.5378147 921.009738 12.5378147 921.009738 149.489329 670.253444 149.489329 670.253444 236.289585 906.543029 236.289585 906.543029 365.525521 670.253444 365.525521 670.253444 454.254671 920.045291 454.254671"></polygon>
                <polygon id="Path" points="310.514607 591.206185 152.345252 591.206185 152.345252 149.489329 0.927028754 149.489329 0.927028754 12.5378147 461.932831 12.5378147 461.932831 149.489329 310.514607 149.489329"></polygon>
            </g>
            <g id="Rectangle-16-+-TOOLING" transform="translate(2205.000000, 0.000000)">
                <rect id="Rectangle-16" stroke="#FFFFFF" stroke-width="5" x="2.5" y="2.5" width="1898" height="599"></rect>
                <path d="M428.475377,191.909788 L394.368837,178.127008 C375.213013,170.340088 365.635245,158.504147 365.635245,142.618829 C365.635245,132.340095 370.229459,123.657809 379.418025,116.571712 C388.606591,109.485614 400.208928,105.942619 414.225384,105.942619 C431.668085,105.942619 446.618748,111.704853 459.07782,123.229495 L449.967169,133.508178 C440.934341,124.163874 429.176268,119.491792 414.692597,119.491792 C404.258124,119.491792 396.198782,121.633163 390.514331,125.915969 C384.829879,130.198775 381.987696,135.76634 381.987696,142.618829 C381.987696,148.069674 383.58399,152.547086 386.776628,156.0512 C389.969265,159.555314 394.758149,162.553233 401.143423,165.045047 L435.016357,178.594221 C454.17218,186.381141 463.749949,198.29495 463.749949,214.336006 C463.749949,225.393432 459.038933,234.465058 449.616759,241.551156 C440.194586,248.637253 428.397579,252.180248 414.225384,252.180248 C405.036818,252.180248 395.809456,250.389284 386.543021,246.8073 C377.276586,243.225317 369.762321,238.553235 364,232.790914 L372.877045,221.344199 C378.016412,226.483566 384.284789,230.649506 391.682363,233.842143 C399.079937,237.03478 406.516334,238.631075 413.991778,238.631075 C423.959035,238.631075 432.018377,236.45077 438.170044,232.090095 C444.321711,227.72942 447.397498,221.811449 447.397498,214.336006 C447.397498,204.524486 441.090187,197.049155 428.475377,191.909788 L428.475377,191.909788 Z M587.094147,199.385194 C587.094147,213.713127 581.915923,225.938408 571.559319,236.061404 C561.202715,246.1844 548.627028,251.245823 533.83188,251.245823 C518.880993,251.245823 506.227437,246.1844 495.870834,236.061404 C485.51423,225.938408 480.336006,213.713127 480.336006,199.385194 C480.336006,185.057261 485.51423,172.870913 495.870834,162.825786 C506.227437,152.780659 518.880993,147.758171 533.83188,147.758171 C548.627028,147.758171 561.202715,152.780659 571.559319,162.825786 C581.915923,172.870913 587.094147,185.057261 587.094147,199.385194 L587.094147,199.385194 Z M571.676122,199.385194 C571.676122,188.794982 568.016325,179.76229 560.69662,172.286847 C553.376915,164.811404 544.422091,161.073738 533.83188,161.073738 C523.08593,161.073738 514.053238,164.811404 506.733533,172.286847 C499.413828,179.76229 495.75403,188.794982 495.75403,199.385194 C495.75403,210.131143 499.413828,219.241703 506.733533,226.717147 C514.053238,234.19259 523.08593,237.930256 533.83188,237.930256 C544.577829,237.930256 553.571587,234.19259 560.813423,226.717147 C568.055259,219.241703 571.676122,210.131143 571.676122,199.385194 L571.676122,199.385194 Z M597.606437,162.475377 L597.606437,149.860629 L617.229378,149.860629 L617.229378,140.282765 C617.229378,127.823693 621.200647,117.661914 629.143306,109.797125 C637.085964,101.932336 647.676017,98 660.913781,98 C668.700702,98 675.08588,99.3237566 680.069509,101.971309 L680.069509,115.05327 C674.307188,112.405717 668.155614,111.08196 661.614601,111.08196 C652.581773,111.08196 645.417914,113.807342 640.122808,119.258186 C634.827703,124.70903 632.18019,131.717153 632.18019,140.282765 L632.18019,149.860629 L674.229348,149.860629 L674.229348,162.475377 L632.18019,162.475377 L632.18019,249.143365 L617.229378,249.143365 L617.229378,162.475377 L597.606437,162.475377 Z M682.405574,162.475377 L682.405574,149.860629 L701.561301,149.860629 L701.561301,119.725399 L716.512113,119.725399 L716.512113,149.860629 L766.036678,149.860629 L766.036678,162.475377 L716.512113,162.475377 L716.512113,208.729451 C716.512113,218.073755 719.00389,225.237614 723.987519,230.221243 C728.971148,235.204872 735.979271,237.696649 745.012099,237.696649 C753.110496,237.696649 759.573542,236.450761 764.401433,233.958946 L764.401433,248.208939 C758.950589,250.233538 752.487542,251.245823 745.012099,251.245823 C731.151381,251.245823 720.444526,247.508157 712.891214,240.032714 C705.337901,232.55727 701.561301,222.434426 701.561301,209.663877 L701.561301,162.475377 L682.405574,162.475377 Z M908.302998,249.143365 L893.11858,249.143365 L859.479253,166.446686 L825.139107,249.143365 L809.721082,249.143365 L774.44651,149.860629 L788.696502,149.860629 L818.130913,231.622882 L852.237453,149.860629 L867.421872,149.860629 L900.827592,231.622882 L930.028397,149.860629 L944.044783,149.860629 L908.302998,249.143365 Z M1039.1226,249.143365 L1025.57343,249.143365 L1025.57343,238.631075 C1016.22913,247.040949 1004.62679,251.245823 990.76607,251.245823 C978.462736,251.245823 968.41776,248.208969 960.63084,242.135172 C952.84392,236.061374 948.950518,228.663911 948.950518,219.94256 C948.950518,210.753994 953.311128,203.161861 962.032479,197.165932 C970.753829,191.170004 982.58977,188.172085 997.540657,188.172085 C1005.63905,188.172085 1014.59388,188.950765 1024.4054,190.508149 L1024.4054,188.405691 C1024.4054,179.995817 1021.64108,173.299166 1016.11237,168.315538 C1010.58366,163.331909 1002.60218,160.840132 992.167709,160.840132 C980.643067,160.840132 969.352202,164.032721 958.294776,170.417995 L958.294776,155.934396 C968.417772,150.483552 979.708637,147.758171 992.167709,147.758171 C1008.05303,147.758171 1019.85003,151.651573 1027.55908,159.438493 C1035.26814,167.225413 1039.1226,177.036785 1039.1226,188.872904 L1039.1226,249.143365 Z M1024.4054,223.91387 L1024.4054,203.122897 C1016.61848,201.565513 1007.66365,200.786832 997.540657,200.786832 C987.261922,200.786832 979.241515,202.577797 973.479194,206.15978 C967.716873,209.741764 964.835756,214.335978 964.835756,219.94256 C964.835756,225.549143 967.093929,229.987621 971.610342,233.258127 C976.126756,236.528633 982.511935,238.163862 990.76607,238.163862 C1006.18417,238.163862 1017.39717,233.413912 1024.4054,223.91387 L1024.4054,223.91387 Z M1086.3111,249.143365 L1071.5939,249.143365 L1071.5939,149.860629 L1085.37668,149.860629 L1085.37668,166.680292 C1093.47507,154.065482 1105.62249,147.758171 1121.81928,147.758171 C1126.64717,147.758171 1131.00778,148.381115 1134.90124,149.627023 L1134.90124,163.643409 C1130.69631,162.086025 1126.10209,161.307344 1121.11846,161.307344 C1113.48728,161.307344 1106.36236,163.954858 1099.74347,169.249963 C1093.12459,174.545069 1088.64718,180.85238 1086.3111,188.172085 L1086.3111,249.143365 Z M1245.16348,203.590109 L1157.09385,203.590109 C1158.18402,214.180321 1162.46676,222.551135 1169.94221,228.702801 C1177.41765,234.854468 1186.60608,237.930256 1197.50777,237.930256 C1203.89304,237.930256 1210.12248,236.528631 1216.19628,233.72534 C1222.27008,230.922049 1227.17577,227.262251 1230.91349,222.745837 L1240.72496,233.024521 C1229.04458,245.172116 1214.71686,251.245823 1197.74137,251.245823 C1181.2331,251.245823 1167.723,246.106532 1157.21066,235.827798 C1146.69831,225.549063 1141.44222,213.01231 1141.44222,198.217161 C1141.44222,184.66792 1146.62045,172.870913 1156.97705,162.825786 C1167.33365,152.780659 1179.83147,147.758171 1194.47088,147.758171 C1209.26603,147.758171 1221.45238,152.819593 1231.03029,162.942589 C1240.6082,173.065586 1245.31922,186.614624 1245.16348,203.590109 L1245.16348,203.590109 Z M1194.47088,160.840132 C1185.12658,160.840132 1177.0283,163.760183 1170.17581,169.600373 C1163.32332,175.440563 1159.04058,182.643356 1157.32746,191.208968 L1228.81103,191.208968 C1227.8766,182.176141 1224.45041,174.856546 1218.53235,169.249963 C1212.61429,163.643381 1204.59388,160.840132 1194.47088,160.840132 L1194.47088,160.840132 Z M466.086013,460.038065 L371.475406,460.038065 L371.475406,319.874203 L466.319619,319.874203 L466.319619,333.189769 L386.893431,333.189769 L386.893431,382.013515 L462.815523,382.013515 L462.815523,395.095475 L386.893431,395.095475 L386.893431,446.722498 L466.086013,446.722498 L466.086013,460.038065 Z M589.430212,460.038065 L574.713006,460.038065 L574.713006,399.300391 C574.713006,391.046256 572.338031,384.427473 567.58801,379.443844 C562.837988,374.460215 556.180272,371.968438 547.614659,371.968438 C540.450693,371.968438 533.2479,373.876205 526.006064,377.691796 C518.764228,381.507387 513.040928,385.829062 508.835991,390.656953 L508.835991,460.038065 L494.118785,460.038065 L494.118785,360.755329 L508.602384,360.755329 L508.602384,373.837289 C521.061457,363.714293 534.454759,358.652871 548.782692,358.652871 C560.930287,358.652871 570.741659,362.234801 578.217103,369.398767 C585.692546,376.562734 589.430212,386.451974 589.430212,399.066785 L589.430212,460.038065 Z M711.139165,370.800406 L711.139165,458.636426 C711.139165,473.275836 706.583885,484.800305 697.473189,493.210179 C688.362492,501.620053 675.631069,505.824926 659.278536,505.824926 C652.270308,505.824926 644.794977,504.69584 636.852318,502.437633 C628.90966,500.179426 622.368745,497.181507 617.229378,493.443785 L624.471177,481.529857 C634.594173,488.849562 646.274378,492.509359 659.512143,492.509359 C671.971215,492.509359 681.276445,489.472506 687.428112,483.398708 C693.579779,477.324911 696.655566,468.993031 696.655566,458.40282 L696.655566,450.460201 C688.089954,456.37826 677.422033,459.337245 664.651484,459.337245 C649.077644,459.337245 635.917946,454.587295 625.171997,445.087253 C614.426047,435.58721 609.053152,423.284061 609.053152,408.177436 C609.053152,394.160979 614.542849,382.402906 625.522406,372.902864 C636.501964,363.402821 649.700595,358.652871 665.118697,358.652871 C681.626968,358.652871 696.966971,362.702009 711.139165,370.800406 L711.139165,370.800406 Z M665.118697,446.255285 C677.422031,446.255285 687.934216,442.361883 696.655566,434.574963 L696.655566,379.210238 C687.622739,374.226609 677.110554,371.734832 665.118697,371.734832 C653.749794,371.734832 644.094158,375.199959 636.151499,382.130318 C628.20884,389.060677 624.237571,397.742963 624.237571,408.177436 C624.237571,419.702078 628.169906,428.92944 636.034696,435.859798 C643.899485,442.790157 653.594055,446.255285 665.118697,446.255285 L665.118697,446.255285 Z M757.860453,460.038065 L742.909641,460.038065 L742.909641,360.755329 L757.860453,360.755329 L757.860453,460.038065 Z M738.704725,324.779938 C738.704725,321.509431 739.833811,318.745116 742.092018,316.486909 C744.350225,314.228702 747.11454,313.099616 750.385047,313.099616 C753.655553,313.099616 756.458802,314.228702 758.794878,316.486909 C761.130954,318.745116 762.298975,321.509431 762.298975,324.779938 C762.298975,328.050444 761.130954,330.775825 758.794878,332.956163 C756.458802,335.136501 753.655553,336.226653 750.385047,336.226653 C747.11454,336.226653 744.350225,335.136501 742.092018,332.956163 C739.833811,330.775825 738.704725,328.050444 738.704725,324.779938 L738.704725,324.779938 Z M885.87678,460.038065 L871.159575,460.038065 L871.159575,399.300391 C871.159575,391.046256 868.7846,384.427473 864.034578,379.443844 C859.284557,374.460215 852.62684,371.968438 844.061228,371.968438 C836.897261,371.968438 829.694468,373.876205 822.452632,377.691796 C815.210797,381.507387 809.487496,385.829062 805.282559,390.656953 L805.282559,460.038065 L790.565354,460.038065 L790.565354,360.755329 L805.048953,360.755329 L805.048953,373.837289 C817.508025,363.714293 830.901327,358.652871 845.22926,358.652871 C857.376856,358.652871 867.188228,362.234801 874.663671,369.398767 C882.139115,376.562734 885.87678,386.451974 885.87678,399.066785 L885.87678,460.038065 Z M1009.22098,414.48481 L921.151352,414.48481 C922.241521,425.075021 926.524263,433.445835 933.999706,439.597501 C941.475149,445.749168 950.663577,448.824956 961.565266,448.824956 C967.95054,448.824956 974.179983,447.423331 980.253781,444.62004 C986.327578,441.816749 991.233265,438.156951 994.970986,433.640537 L1004.78246,443.919221 C993.102076,456.066816 978.774358,462.140523 961.798872,462.140523 C945.290601,462.140523 931.780498,457.001232 921.268155,446.722498 C910.755813,436.443763 905.499721,423.90701 905.499721,409.111861 C905.499721,395.56262 910.677945,383.765613 921.034549,373.720486 C931.391153,363.675359 943.888972,358.652871 958.528382,358.652871 C973.32353,358.652871 985.509878,363.714293 995.087789,373.837289 C1004.6657,383.960286 1009.37672,397.509324 1009.22098,414.48481 L1009.22098,414.48481 Z M958.528382,371.734832 C949.184078,371.734832 941.085802,374.654883 934.233313,380.495073 C927.380823,386.335263 923.098081,393.538056 921.384959,402.103668 L992.868528,402.103668 C991.934098,393.070841 988.507904,385.751246 982.589845,380.144663 C976.671786,374.538081 968.651378,371.734832 958.528382,371.734832 L958.528382,371.734832 Z M1125.79059,414.48481 L1037.72096,414.48481 C1038.81113,425.075021 1043.09387,433.445835 1050.56932,439.597501 C1058.04476,445.749168 1067.23319,448.824956 1078.13488,448.824956 C1084.52015,448.824956 1090.74959,447.423331 1096.82339,444.62004 C1102.89719,441.816749 1107.80288,438.156951 1111.5406,433.640537 L1121.35207,443.919221 C1109.67169,456.066816 1095.34397,462.140523 1078.36848,462.140523 C1061.86021,462.140523 1048.35011,457.001232 1037.83777,446.722498 C1027.32543,436.443763 1022.06933,423.90701 1022.06933,409.111861 C1022.06933,395.56262 1027.24756,383.765613 1037.60416,373.720486 C1047.96076,363.675359 1060.45858,358.652871 1075.09799,358.652871 C1089.89314,358.652871 1102.07949,363.714293 1111.6574,373.837289 C1121.23531,383.960286 1125.94633,397.509324 1125.79059,414.48481 L1125.79059,414.48481 Z M1075.09799,371.734832 C1065.75369,371.734832 1057.65541,374.654883 1050.80292,380.495073 C1043.95043,386.335263 1039.66769,393.538056 1037.95457,402.103668 L1109.43814,402.103668 C1108.50371,393.070841 1105.07752,385.751246 1099.15946,380.144663 C1093.2414,374.538081 1085.22099,371.734832 1075.09799,371.734832 L1075.09799,371.734832 Z M1160.59795,460.038065 L1145.88074,460.038065 L1145.88074,360.755329 L1159.66352,360.755329 L1159.66352,377.574992 C1167.76192,364.960182 1179.90933,358.652871 1196.10613,358.652871 C1200.93402,358.652871 1205.29463,359.275815 1209.18809,360.521723 L1209.18809,374.538109 C1204.98315,372.980725 1200.38894,372.202044 1195.40531,372.202044 C1187.77413,372.202044 1180.6492,374.849558 1174.03032,380.144663 C1167.41144,385.439769 1162.93403,391.74708 1160.59795,399.066785 L1160.59795,460.038065 Z M1245.39709,460.038065 L1230.44627,460.038065 L1230.44627,360.755329 L1245.39709,360.755329 L1245.39709,460.038065 Z M1226.24136,324.779938 C1226.24136,321.509431 1227.37045,318.745116 1229.62865,316.486909 C1231.88686,314.228702 1234.65117,313.099616 1237.92168,313.099616 C1241.19219,313.099616 1243.99544,314.228702 1246.33151,316.486909 C1248.66759,318.745116 1249.83561,321.509431 1249.83561,324.779938 C1249.83561,328.050444 1248.66759,330.775825 1246.33151,332.956163 C1243.99544,335.136501 1241.19219,336.226653 1237.92168,336.226653 C1234.65117,336.226653 1231.88686,335.136501 1229.62865,332.956163 C1227.37045,330.775825 1226.24136,328.050444 1226.24136,324.779938 L1226.24136,324.779938 Z M1373.41341,460.038065 L1358.69621,460.038065 L1358.69621,399.300391 C1358.69621,391.046256 1356.32123,384.427473 1351.57121,379.443844 C1346.82119,374.460215 1340.16347,371.968438 1331.59786,371.968438 C1324.4339,371.968438 1317.2311,373.876205 1309.98927,377.691796 C1302.74743,381.507387 1297.02413,385.829062 1292.81919,390.656953 L1292.81919,460.038065 L1278.10199,460.038065 L1278.10199,360.755329 L1292.58559,360.755329 L1292.58559,373.837289 C1305.04466,363.714293 1318.43796,358.652871 1332.76589,358.652871 C1344.91349,358.652871 1354.72486,362.234801 1362.20031,369.398767 C1369.67575,376.562734 1373.41341,386.451974 1373.41341,399.066785 L1373.41341,460.038065 Z M1495.12237,370.800406 L1495.12237,458.636426 C1495.12237,473.275836 1490.56709,484.800305 1481.45639,493.210179 C1472.34569,501.620053 1459.61427,505.824926 1443.26174,505.824926 C1436.25351,505.824926 1428.77818,504.69584 1420.83552,502.437633 C1412.89286,500.179426 1406.35195,497.181507 1401.21258,493.443785 L1408.45438,481.529857 C1418.57738,488.849562 1430.25758,492.509359 1443.49535,492.509359 C1455.95442,492.509359 1465.25965,489.472506 1471.41131,483.398708 C1477.56298,477.324911 1480.63877,468.993031 1480.63877,458.40282 L1480.63877,450.460201 C1472.07316,456.37826 1461.40524,459.337245 1448.63469,459.337245 C1433.06085,459.337245 1419.90115,454.587295 1409.1552,445.087253 C1398.40925,435.58721 1393.03635,423.284061 1393.03635,408.177436 C1393.03635,394.160979 1398.52605,382.402906 1409.50561,372.902864 C1420.48517,363.402821 1433.6838,358.652871 1449.1019,358.652871 C1465.61017,358.652871 1480.95017,362.702009 1495.12237,370.800406 L1495.12237,370.800406 Z M1449.1019,446.255285 C1461.40523,446.255285 1471.91742,442.361883 1480.63877,434.574963 L1480.63877,379.210238 C1471.60594,374.226609 1461.09376,371.734832 1449.1019,371.734832 C1437.733,371.734832 1428.07736,375.199959 1420.1347,382.130318 C1412.19204,389.060677 1408.22077,397.742963 1408.22077,408.177436 C1408.22077,419.702078 1412.15311,428.92944 1420.0179,435.859798 C1427.88269,442.790157 1437.57726,446.255285 1449.1019,446.255285 L1449.1019,446.255285 Z" id="Software" fill="#FFFFFF"></path>
            </g>
        </g>
    </g>
</svg>
